<?xml version="1.0" encoding="utf-8"?>
<!-- Generator: Adobe Illustrator 27.9.1, SVG Export Plug-In . SVG Version: 6.00 Build 0)  -->
<svg version="1.1" id="Layer_1" xmlns="http://www.w3.org/2000/svg" xmlns:xlink="http://www.w3.org/1999/xlink" x="0px" y="0px"
	 viewBox="0 0 779.6 135.5" style="enable-background:new 0 0 779.6 135.5;" xml:space="preserve">
<style type="text/css">
	.st0{fill:#223A4E;}
</style>
<g>
	<g>
		<path class="st0" d="M138.8,28.6h-12.6l-3,77.2h18.6L138.8,28.6z M128.4,102.9l-1.5-0.1l1.3-71.3l1.5,0.1L128.4,102.9z
			 M133.3,102.8h-1.5V31.6h1.5V102.8z M135.4,31.6l1.5-0.1l2,71.3l-1.5,0.1L135.4,31.6z"/>
		<g>
			<path class="st0" d="M197.9,16.7c-2.2-3.7-5.9,0.7-4.5,1.5c0,0-4.8,1.1-16.7-2.6s-23-5.9-31.2-4.5c-8.2,1.5-10.4,1.5-9.7-2.2
				c0.7-3.6,2.9-8-3.3-8.9v0c-0.1,0-0.1,0-0.2,0c-0.1,0-0.1,0-0.2,0v0c-6.2,0.9-4.1,5.2-3.3,8.9c0.7,3.7-1.5,3.7-9.7,2.2
				S99.9,11.9,88,15.6s-16.7,2.6-16.7,2.6c1.5-0.7-2.2-5.2-4.5-1.5c-2.2,3.7,3,4.5,8.9,3.7s46.8-5.2,47.5,0h18.2
				c0.7-5.2,41.6-0.7,47.5,0S200.1,20.4,197.9,16.7z"/>
			<path class="st0" d="M123.5,21.9c0.9,3.8,2.7,4.5,2.7,4.5l6.1-0.4l6.1,0.4c0,0,1.8-0.6,2.7-4.5H123.5z"/>
		</g>
		<g>
			<g>
				<path class="st0" d="M48.3,63.5c5.7,7.2,14.6,11.9,24.5,11.9s18.8-4.6,24.5-11.9H48.3z"/>
			</g>
			<g>
				<rect x="72.4" y="19.7" class="st0" width="0.7" height="44.5"/>
			</g>
			<g>
				
					<rect x="82.8" y="17.2" transform="matrix(0.9144 -0.4047 0.4047 0.9144 -9.8631 37.2469)" class="st0" width="0.7" height="49.5"/>
			</g>
			<g>
				
					<rect x="36.9" y="40.8" transform="matrix(0.4045 -0.9145 0.9145 0.4045 -0.988 80.8964)" class="st0" width="49.5" height="0.7"/>
			</g>
		</g>
		<g>
			<g>
				<path class="st0" d="M168.6,63.5c5.7,7.2,14.6,11.9,24.5,11.9s18.8-4.6,24.5-11.9H168.6z"/>
			</g>
			<g>
				<rect x="192.7" y="19.7" class="st0" width="0.7" height="44.5"/>
			</g>
			<g>
				
					<rect x="203.1" y="17.2" transform="matrix(0.9144 -0.4047 0.4047 0.9144 0.4294 85.9296)" class="st0" width="0.7" height="49.5"/>
			</g>
			<g>
				
					<rect x="157.1" y="40.8" transform="matrix(0.4045 -0.9145 0.9145 0.4045 70.6377 190.8962)" class="st0" width="49.5" height="0.7"/>
			</g>
		</g>
		<polygon class="st0" points="144,108 132.9,108 121.8,108 118.1,111.7 132.9,111.7 147.8,111.7 		"/>
		<path class="st0" d="M0,135.5c0,0,127.7-39.4,265.8,0C265.8,135.5,147,83.5,0,135.5z"/>
	</g>
	<g>
		<g>
			<path class="st0" d="M261.3,53.7c0,6.3-0.2,10.8,0.9,12.1c0.9,1.2,2.1,1.5,7.3,1.5c3.4,0,5.4-0.1,7.2-1c1.5-0.7,2.6-2.3,3.3-5.3
				c0.2-0.7,0.3-1.2,0.8-1.2c0.4,0,0.5,0.3,0.5,1.2c0,1.4-0.7,7.4-1.3,9.2c-0.5,1.6-1,1.7-3.5,1.7c-8.6,0-14.4-0.4-21.1-0.4
				c-2.9,0-6.3,0.2-9.8,0.2c-0.9,0-1.4-0.1-1.4-0.7c0-0.4,0.4-0.6,1.3-0.6c0.8-0.1,1.4-0.1,2.1-0.2c2.3-0.4,2.3-1.5,2.5-6.5
				c0.1-2.5,0.2-6.3,0.2-10.1v-11c0-10.2-0.1-11.3-0.2-13.3c-0.1-1.8-0.6-2.8-2.1-3.3c-0.6-0.2-1.5-0.2-2.4-0.3
				c-0.7,0-1.3-0.1-1.3-0.6s0.6-0.6,1.9-0.6c3.6,0,6.8,0.2,9.3,0.2c0.6,0,8.3-0.2,10.6-0.2c1.1,0,1.5,0.2,1.5,0.6
				c0,0.6-0.6,0.7-1.5,0.7c-0.6,0.1-1.3,0.1-2.1,0.2c-1.7,0.3-2.1,1.5-2.3,3.7c-0.1,2-0.2,3.3-0.2,13.6V53.7z"/>
			<path class="st0" d="M289.7,46.5c0-9-0.1-10-0.2-11.8c-0.1-1.4-0.7-2.3-2-2.5c-0.5-0.1-1.1-0.1-1.7-0.2c-0.8-0.1-0.9-0.4-0.9-0.7
				s0.3-0.6,1.2-0.6c3.4,0,6,0.2,8.4,0.2c1,0,15.4-0.1,16.3-0.1c1.1,0,2.3-0.1,3.2-0.2c0.4-0.1,0.7-0.2,0.9-0.2
				c0.3,0,0.4,0.3,0.4,0.6c-0.1,0.7-0.3,1.4-0.4,2.6c-0.1,1.4-0.1,2.5-0.3,5.9c0,0.4-0.2,0.9-0.6,0.9c-0.3,0-0.6-0.2-0.6-0.8
				c-0.1-0.8-0.1-1.2-0.3-2c-0.3-1.3-1-2-3.7-2.3c-2.1-0.1-6.6-0.2-8.4-0.2c-0.3,0-0.4,0.2-0.4,0.6v11.4c0,0.4,0.1,0.5,0.4,0.5
				c1.7,0,5.6,0,7.8-0.1c3.1-0.1,3.8-0.3,4.5-1.4c0.2-0.5,0.5-0.7,0.8-0.7c0.4,0,0.4,0.4,0.4,0.7c0,0.6-0.4,3-0.4,5
				c-0.1,1.2-0.1,4.1-0.1,4.7c0,0.8-0.2,0.9-0.6,0.9c-0.3,0-0.6-0.2-0.6-0.9c-0.1-0.3-0.1-0.7-0.1-1.1c-0.3-1.7-0.9-2.7-3.9-2.9
				c-1.8-0.1-6-0.2-7.8-0.2c-0.3,0-0.4,0.1-0.4,0.4v3.9c0,1.8-0.1,4.4,0,6.6c0.1,3.8,0.8,4.7,7.1,4.7c1.4,0,3.6-0.1,5.2-0.6
				c1.6-0.6,2.2-1.9,2.7-4.4c0.1-0.6,0.4-0.9,0.8-0.9c0.4,0,0.5,0.4,0.5,1.1c0,2.4-0.6,6.8-0.8,7.8c-0.4,1.4-0.9,1.4-2.9,1.4
				c-8.4,0-12.4-0.3-18.3-0.3c-2.6,0-5.3,0.2-8.5,0.2c-1.1,0-1.3-0.3-1.3-0.7c0-0.2,0.2-0.6,1.1-0.6c0.6-0.1,1-0.1,1.6-0.2
				c1.8-0.3,2-2.4,2.2-6.3c0-2.1,0.1-5.1,0.1-8.1V46.5z"/>
			<path class="st0" d="M364.8,66.2c0,3.6-0.1,3.9-1.3,4.3c-2.8,0.9-8.6,2-13.7,2c-16.3,0-27-7-27-21.3c0-9.1,5-14.8,10.3-17.6
				c5.8-3.3,12.1-3.6,16.3-3.6c3.3,0,6.1,0.3,8.8,0.7c2.1,0.2,3.9,0.6,5.6,0.7c0.6,0,0.7,0.4,0.5,0.9c-0.1,0.5-0.7,2.9-0.7,10.2
				c0,0.9-0.2,1.2-0.7,1.2c-0.4,0-0.6-0.6-0.6-1c-0.1-0.7-0.2-1.4-0.5-2.2c-0.7-4.2-5.8-6.8-13.9-6.8c-4.4,0-7.6,1.3-9.8,4
				c-1.9,2.4-3.2,6.2-3.2,11.2c0,9.3,4.2,19.9,15.3,19.9c1.1,0,2.7-0.1,3.3-0.8c0.4-0.2,0.6-0.7,0.6-1.3V64c0-2.1,0-4.2,0.1-6.3
				c0-3.4-0.8-4.5-2.8-4.8c-0.8-0.1-1.5-0.2-2.4-0.2c-0.6-0.1-0.9-0.4-0.9-0.8s0.3-0.5,1.2-0.5c3.9,0,8.3,0.1,9.8,0.1
				c2.2,0,5.9-0.1,9.3-0.1c0.8,0,1.3,0.1,1.3,0.6c0,0.4-0.2,0.5-0.9,0.7c-0.3,0-1.1,0.1-1.5,0.1c-1.4,0.2-2,0.8-2.1,2.6
				c-0.2,1.9-0.2,4.7-0.2,7.3V66.2z"/>
			<path class="st0" d="M384,61.5c-0.4,0-0.6,0.4-0.6,0.6l-1.3,3.2c-0.6,1.4-0.9,2.6-0.9,3.3c0,1.8,2.4,1.9,3.8,2
				c0.8,0.1,1,0.3,1,0.6c0,0.4-0.3,0.7-1.1,0.7c-2.8,0-4.6-0.2-7.8-0.2c-0.6,0-4.3,0.2-6.9,0.2c-0.9,0-1.1-0.2-1.1-0.6
				s0.3-0.6,1-0.6c2.7-0.3,4.1-1.1,5.8-4.8l15-32c1.3-2.9,1.9-3.7,2.6-3.7c0.6,0,1.1,0.8,2.2,2.9c1.4,3.1,11.1,23.4,14.8,31.6
				c1.9,4,2.9,5.4,5.1,5.8c0.5,0.1,0.9,0.1,1.2,0.1c0.7,0,1.1,0.3,1.1,0.6c0,0.4-0.5,0.6-1.1,0.6c-6.3-0.1-12.8-0.1-16.1-0.2
				c-0.8,0-1.1-0.2-1.1-0.6c0-0.4,0.4-0.5,0.8-0.6c0.5-0.2,1.1-0.2,0.8-0.9l-3.4-7.7c-0.1-0.2-0.3-0.3-0.5-0.3H384z M395.2,56.5
				c0.4,0,0.4-0.1,0.3-0.2l-4.9-11.2c-0.2-0.3-0.2-0.2-0.3,0.1l-4.6,11.1c-0.1,0.2,0.1,0.2,0.2,0.2H395.2z"/>
			<path class="st0" d="M433.6,56.1c0,5.1-0.2,9.1,0.7,10.3c0.8,1.1,1.8,1.3,6.5,1.3c3.1,0,4.6-0.1,6.2-0.6c1.6-0.6,2.8-1.9,3.4-4.9
				c0.1-0.6,0.3-1.1,0.8-1.1c0.4,0,0.5,0.4,0.5,1.1c0,1.4-0.8,6.8-1.4,8.4c-0.5,1.4-0.9,1.4-2.9,1.4c-8.4,0-13.6-0.3-19.6-0.3
				c-2.6,0-5.4,0.2-8.6,0.2c-0.9,0-1.3-0.2-1.3-0.7c0-0.2,0.3-0.6,1.1-0.6c0.6-0.1,0.7-0.1,1.3-0.1c2.3-0.4,2.5-1.2,2.7-6.3
				c0-2.1,0.1-5.1,0.1-8.1v-9.5c0-9-0.1-9.6-0.2-11.4c-0.1-1.5-0.6-2.4-1.9-2.8c-0.5-0.1-1.2-0.2-2.1-0.3c-0.6-0.1-1.1-0.2-1.1-0.6
				s0.4-0.6,1.6-0.6c3.4,0,6.1,0.2,8.5,0.2c0.3,0,7.6-0.2,9.6-0.2c1,0,1.2,0.2,1.2,0.6c0,0.5-0.5,0.7-1,0.7
				c-0.6,0.1-0.9,0.1-1.7,0.2c-1.6,0.3-2,1.3-2.1,3.2c-0.1,1.8-0.2,2.6-0.2,11.7V56.1z"/>
			<path class="st0" d="M480.6,65.8c-6.1-5.3-7.9-11.7-7.9-18.4c0-4.3,1.4-12,7.8-17.3c5.4-4.6,11.6-6.4,20.7-6.4
				c3.6,0,6.4,0.4,8.9,0.8c2.8,0.4,4.3,0.8,6.2,0.8c0.7,0.1,0.7,0.4,0.7,0.8c0,0.5-0.2,2-0.3,4.1c-0.1,2.1-0.1,5.8-0.2,7.3
				c-0.1,0.9-0.2,1.5-0.8,1.5c-0.5,0-0.7-0.4-0.8-1.3c-0.1-1.4-0.3-3.9-2.4-6.1c-2.2-2.3-6.6-3.9-12.6-3.9c-3.7,0-6.8,0.9-9.2,3
				c-3.8,3.3-5.5,9.1-5.5,15.8c0,12.9,7,21.5,17.5,21.5c5.1,0,8.3-0.4,10.8-3.2c0.9-0.9,1.6-2.3,2.1-4.2c0.3-1.3,0.5-1.8,1-1.8
				c0.4,0,0.5,0.6,0.5,1.1c0,1.1-0.8,6.5-1.4,9.5c-0.1,0.9-0.6,1.4-1.6,1.8c-2.5,1-6.8,1.4-10.8,1.4
				C495.1,72.7,487.1,71.3,480.6,65.8z"/>
			<path class="st0" d="M522.3,51.5c0-11.3,7.8-21.4,24.2-21.4c14.3,0,23.2,9.6,23.2,20.2c0,12.7-8.8,22.3-23.6,22.3
				C529.5,72.5,522.3,61.1,522.3,51.5z M557.7,52.8c0-8.3-3-19.1-13.1-19.1c-4.8,0-10.3,2.4-10.3,15.1c0,10,4,19.9,13.3,19.9
				C551.1,68.8,557.7,67.5,557.7,52.8z"/>
			<path class="st0" d="M590.4,54.7c0,7.4,1,10.4,4.3,12.6c2.2,1.2,3.9,1.3,5.1,1.3c1.6,0,3.9-0.3,5.8-1.8c3.3-2.6,3.2-8.4,3.2-13.9
				v-6.4c0-7.9,0-9.1-0.1-10.9c-0.1-2.1-0.6-3-2.4-3.3c-0.7-0.1-0.8-0.1-2.1-0.2c-0.8-0.1-1-0.4-1-0.7c0-0.4,0.3-0.6,1.3-0.6
				c3.3,0,6.6,0.2,7.8,0.2c1,0,4.7-0.2,7.6-0.2c0.9,0,1.2,0.2,1.2,0.6c0,0.2-0.2,0.5-0.9,0.6c-0.6,0.1-1,0.1-1.8,0.2
				c-1.5,0.3-1.9,1-2.1,3.3c-0.1,1.8-0.2,2.9-0.2,10.9v5.2c0,6.3-0.2,12.9-5.9,17.3c-3.4,2.6-7.8,3.6-11.6,3.6
				c-5.4,0-10.3-0.9-13.6-3.6c-3.1-2.4-5.3-6.3-5.3-14.1v-8.3c0-8.4,0-9.8-0.1-11.6c-0.1-1.4-0.4-2.2-1.7-2.5
				c-0.6-0.2-2-0.3-2.4-0.4c-0.9-0.1-1-0.4-1-0.7s0.2-0.6,1.4-0.6c2.3,0,8.4,0.2,8.6,0.2c0.3,0,7.6-0.2,9.6-0.2
				c1.1,0,1.4,0.2,1.4,0.6c0,0.4-0.2,0.6-0.9,0.7c-0.5,0.1-1.4,0.1-2,0.2c-1.6,0.3-1.9,1.5-2.1,3.2c-0.1,1.8-0.1,4.4-0.1,11V54.7z"
				/>
			<path class="st0" d="M629.3,32.8c0.1-1.8,0.2-2.8,1.1-2.8c0.3,0,0.6,0,2.1,1.2c2.7,2.1,11.3,9.5,18.3,15.6
				c6.2,5.4,9.1,7.9,10.8,9.4l-0.3-19.1c-0.1-3-0.5-4.4-2.9-4.8c-0.7-0.1-1.4-0.2-2.3-0.2c-0.8-0.1-1-0.4-1-0.6
				c0-0.4,0.5-0.6,1.1-0.6c2.1,0,5.9,0.2,8.4,0.2c1.4,0,4.3-0.2,6.6-0.2c0.9,0,1.2,0.2,1.2,0.6c0,0.2-0.1,0.6-0.9,0.7
				c-0.7,0.1-0.9,0.1-1.3,0.1c-1.9,0.2-2.5,1.1-2.7,4.5c-0.5,10.2-0.7,21.3-0.8,32.1c0,3.1-0.4,3.7-1.2,3.7c-0.9,0-2.9-1.4-7.3-5
				c-3.9-3.3-8.3-7.1-11-9.5c-3-2.7-7.8-6.8-12.6-11.2l0.6,17.6c0.1,3.8,0.2,5.3,1.9,5.8c1.1,0.2,1.7,0.3,2.8,0.4
				c0.9,0.1,1.2,0.3,1.2,0.6c0,0.4-0.4,0.6-1.4,0.6c-1.6,0-3.3-0.1-7.2-0.2c-1.6,0-6.1,0.2-8,0.2c-0.9,0-1.2-0.2-1.2-0.6
				c0-0.3,0.2-0.6,1-0.6c0.6-0.1,0.9-0.1,1.6-0.1c2.3-0.3,2.8-1.6,3-6.6C629.1,52.7,629.1,40.1,629.3,32.8z"/>
			<path class="st0" d="M677.8,71c-1-0.4-1.3-1.2-1.3-2.2c0-4.7,0.1-6.7,0.3-8.4c0.1-1,0.4-1.2,0.8-1.2s0.5,0.2,0.6,0.8
				c0.1,0.5,0.1,0.9,0.2,1.4c0.8,4.7,5.3,7.4,9.9,7.4c5.1,0,6.6-2.4,6.6-4.6s-0.8-3.9-5.5-7.1l-3.4-2.3c-6.7-4.6-8.5-8.3-8.5-13.3
				c0.1-6.3,5.5-11.5,14.6-11.5c2.6,0,4.3,0.1,6.8,0.6c0.9,0.2,1.9,0.4,2.8,0.6c0.6,0.1,0.7,0.3,0.7,0.8c-0.1,2-0.2,2.9-0.2,7.9
				c0,0.9-0.2,1.3-0.6,1.3c-0.3,0-0.6-0.1-0.8-1.1c-0.1-0.6-0.3-1.8-0.9-3c-1.1-2-4.1-3.9-7.8-3.9c-4.7,0-6.2,2.6-6.2,4.9
				c0,2.4,1.1,4,4.3,5.9l3.2,2c8.1,5.1,10.3,8.1,10.3,13.6c0,4.3-1.9,8.1-6.3,10.4c-3.3,1.9-7.2,2.2-10.1,2.2
				C682.9,72.5,680,71.9,677.8,71z"/>
			<path class="st0" d="M713.7,46.5c0-9-0.1-10-0.2-11.8c-0.1-1.4-0.7-2.3-2-2.5c-0.5-0.1-1.1-0.1-1.7-0.2c-0.8-0.1-0.9-0.4-0.9-0.7
				s0.3-0.6,1.2-0.6c3.4,0,6,0.2,8.4,0.2c1,0,15.4-0.1,16.3-0.1c1.1,0,2.3-0.1,3.2-0.2c0.4-0.1,0.7-0.2,0.9-0.2
				c0.3,0,0.4,0.3,0.4,0.6c-0.1,0.7-0.3,1.4-0.4,2.6c-0.1,1.4-0.1,2.5-0.3,5.9c0,0.4-0.2,0.9-0.6,0.9c-0.3,0-0.6-0.2-0.6-0.8
				c-0.1-0.8-0.1-1.2-0.3-2c-0.3-1.3-1-2-3.7-2.3c-2.1-0.1-6.6-0.2-8.4-0.2c-0.3,0-0.4,0.2-0.4,0.6v11.4c0,0.4,0.1,0.5,0.4,0.5
				c1.7,0,5.6,0,7.8-0.1c3.1-0.1,3.8-0.3,4.5-1.4c0.2-0.5,0.5-0.7,0.8-0.7c0.4,0,0.4,0.4,0.4,0.7c0,0.6-0.4,3-0.4,5
				c-0.1,1.2-0.1,4.1-0.1,4.7c0,0.8-0.2,0.9-0.6,0.9c-0.3,0-0.6-0.2-0.6-0.9c-0.1-0.3-0.1-0.7-0.1-1.1c-0.3-1.7-0.9-2.7-3.9-2.9
				c-1.8-0.1-6-0.2-7.8-0.2c-0.3,0-0.4,0.1-0.4,0.4v3.9c0,1.8-0.1,4.4,0,6.6c0.1,3.8,0.8,4.7,7.1,4.7c1.4,0,3.6-0.1,5.2-0.6
				c1.6-0.6,2.2-1.9,2.7-4.4c0.1-0.6,0.4-0.9,0.8-0.9c0.4,0,0.5,0.4,0.5,1.1c0,2.4-0.6,6.8-0.8,7.8c-0.4,1.4-0.9,1.4-2.9,1.4
				c-8.4,0-12.4-0.3-18.3-0.3c-2.6,0-5.3,0.2-8.5,0.2c-1.1,0-1.3-0.3-1.3-0.7c0-0.2,0.2-0.6,1.1-0.6c0.6-0.1,1-0.1,1.6-0.2
				c1.8-0.3,2-2.4,2.2-6.3c0-2.1,0.1-5.1,0.1-8.1V46.5z"/>
			<path class="st0" d="M761.5,56.1c0,5.1-0.2,9.1,0.7,10.3c0.8,1.1,1.8,1.3,6.5,1.3c3.1,0,4.6-0.1,6.2-0.6c1.6-0.6,2.8-1.9,3.4-4.9
				c0.1-0.6,0.3-1.1,0.8-1.1c0.4,0,0.5,0.4,0.5,1.1c0,1.4-0.8,6.8-1.4,8.4c-0.5,1.4-0.9,1.4-2.9,1.4c-8.4,0-13.6-0.3-19.6-0.3
				c-2.6,0-5.4,0.2-8.6,0.2c-0.9,0-1.3-0.2-1.3-0.7c0-0.2,0.3-0.6,1.1-0.6c0.6-0.1,0.7-0.1,1.3-0.1c2.3-0.4,2.5-1.2,2.7-6.3
				c0-2.1,0.1-5.1,0.1-8.1v-9.5c0-9-0.1-9.6-0.2-11.4c-0.1-1.5-0.6-2.4-1.9-2.8c-0.5-0.1-1.2-0.2-2.1-0.3c-0.6-0.1-1.1-0.2-1.1-0.6
				s0.4-0.6,1.6-0.6c3.4,0,6.1,0.2,8.5,0.2c0.3,0,7.6-0.2,9.6-0.2c1,0,1.2,0.2,1.2,0.6c0,0.5-0.5,0.7-1,0.7
				c-0.6,0.1-0.9,0.1-1.7,0.2c-1.6,0.3-2,1.3-2.1,3.2c-0.1,1.8-0.2,2.6-0.2,11.7V56.1z"/>
		</g>
		<g>
			<path class="st0" d="M382.1,111.1c-0.1,0-0.2,0-0.2,0.2l-0.7,2c-0.2,0.6-0.4,1.2-0.4,1.5c0,0.5,0.2,0.7,0.7,0.7
				c0.3,0,0.6,0.1,0.8,0.1c0.4,0,0.4,0.1,0.4,0.2c0,0.2-0.2,0.2-0.5,0.2c-1.1,0-1.9-0.1-3.2-0.1c-0.3,0-1.8,0.1-3,0.1
				c-0.3,0-0.5-0.1-0.5-0.2c0-0.2,0.2-0.2,0.5-0.2c0.3,0,0.5,0,0.8-0.1c0.8-0.2,1.3-0.9,1.8-2.1l6.4-14.5c0.5-1,0.7-1.4,1-1.4
				c0.2,0,0.5,0.3,0.9,1.2c0.6,1.3,4.6,10.5,6.3,14.2c0.8,1.9,1.3,2.4,2.2,2.6c0.3,0.1,0.6,0.1,0.8,0.1c0.3,0,0.5,0.1,0.5,0.2
				c0,0.2-0.2,0.2-0.6,0.2c-2.3,0-5.1,0-6.6-0.1c-0.4,0-0.5-0.1-0.5-0.2s0.1-0.2,0.3-0.3c0.3,0,0.4-0.2,0.3-0.4l-1.6-3.8
				c0-0.1-0.1-0.1-0.2-0.1H382.1z M386.9,109.2c0.1,0,0.1-0.1,0.1-0.1l-2.1-5.1c-0.1-0.2-0.1-0.1-0.2,0l-2,5.1c0,0.1,0,0.1,0.1,0.1
				H386.9z"/>
			<path class="st0" d="M405.4,98.7c0-0.7,0.1-1.2,0.4-1.2c0.2,0,0.3,0.1,0.9,0.6c1,0.8,2.3,2,7.7,7.1c2.4,2.3,4.1,3.9,4.7,4.4
				l-0.1-9c0-1.3-0.2-2-1.1-2.1c-0.3-0.1-0.7-0.1-1.1-0.1c-0.3,0-0.4-0.1-0.4-0.2c0-0.2,0.2-0.2,0.5-0.2c1,0,2.5,0.1,3.5,0.1
				c0.5,0,1.7-0.1,2.7-0.1c0.4,0,0.5,0.1,0.5,0.2c0,0.1-0.1,0.3-0.4,0.3c-0.3,0-0.4,0-0.6,0.1c-0.8,0.1-1,0.5-1.1,2
				c-0.2,4.8-0.2,9.6-0.3,14.4c0,1.2-0.2,1.5-0.5,1.5c-0.4,0-1.1-0.6-2.7-1.9c-1.6-1.4-3.7-3.3-5.2-4.6c-1.3-1.2-3.7-3.5-5.5-5.2
				l0.2,8.2c0,1.7,0.1,2.4,0.8,2.6c0.4,0.1,0.8,0.1,1.3,0.2c0.4,0,0.5,0.1,0.5,0.2c0,0.2-0.2,0.2-0.6,0.2c-0.8,0-1.6,0-3.1-0.1
				c-0.6,0-2.3,0.1-3.3,0.1c-0.3,0-0.5,0-0.5-0.2c0-0.1,0.1-0.2,0.5-0.2c0.2,0,0.5,0,0.8-0.1c0.9-0.1,1.1-0.7,1.1-3
				C405.3,107.6,405.3,101.8,405.4,98.7z"/>
			<path class="st0" d="M435.2,104.9c0-3.5,0-4.2,0-5c0-0.7-0.2-1.3-1.1-1.4c-0.2,0-0.4,0-0.9-0.1c-0.4,0-0.5-0.1-0.5-0.3
				c0-0.1,0.1-0.2,0.6-0.2c0.6,0,2.8,0.1,3.9,0.1c0.8,0,1.9,0,3.9,0c4.1,0,7.3,0.6,9.5,2.8c1.2,1.2,2.3,3.2,2.3,6.1
				c0,2.9-1.3,5.3-2.6,6.6c-1.2,1.2-3.4,2.9-8.2,2.9c-1,0-1.8,0-2.6-0.1c-0.9-0.1-1.9-0.2-2.4-0.2c-0.6,0-1.2,0-1.8,0
				c-0.7,0-1,0-1.7,0c-0.4,0-0.5-0.1-0.5-0.2c0-0.2,0.2-0.2,0.5-0.2c0.3,0,0.5,0,0.7-0.1c0.5-0.1,0.7-0.5,0.8-1.5
				c0.1-1.1,0.1-2.9,0.1-4.9V104.9z M439.5,107.6c0,2.5,0,4.2,0,4.6c0,1,0.1,1.5,0.4,1.7c0.4,0.5,1.4,0.9,2.5,0.9
				c1.7,0,3.1-0.4,4.4-1.7c1.2-1.2,1.6-3.4,1.6-5.6c0-2.2-0.8-4.1-1.8-5.5c-1.7-2.2-3.9-2.6-5.5-2.6c-0.5,0-1.1,0.1-1.3,0.2
				c-0.2,0.1-0.2,0.2-0.2,0.4c0,0.8,0,2.5,0,4.5V107.6z"/>
			<path class="st0" d="M479,104.9c0-2.6,0-4.4-0.1-5.2c0-0.7-0.3-1.1-0.8-1.2c-0.3-0.1-0.6-0.1-0.9-0.1c-0.3,0-0.4-0.1-0.4-0.2
				s0.1-0.2,0.5-0.2c1,0,3.5,0.1,3.9,0.1c1.1,0,2.5-0.1,3.6-0.1c3.3,0,4.8,0.8,5.8,1.7c0.5,0.5,1.3,1.6,1.3,3.2
				c0,3.7-3.4,5.7-6.7,5.7c-0.2,0-0.6,0-0.7-0.1c-0.1,0-0.3-0.1-0.3-0.2s0.1-0.2,0.5-0.2c2,0,2.9-1.6,2.9-3.7c0-1.7-0.3-3-1.2-3.9
				c-0.6-0.7-1.4-1-2.3-1c-0.3,0-0.5,0-0.6,0c-0.2,0-0.3,0.2-0.3,0.6v9.2c0,1.9,0,4,0.1,5.1c0,0.7,0.2,1.1,0.9,1.3
				c0.3,0.1,0.8,0.1,1.1,0.1c0.4,0,0.5,0.1,0.5,0.3c0,0.1-0.1,0.2-0.5,0.2c-1.7,0-4.2-0.1-4.4-0.1c-0.1,0-2.7,0.1-3.5,0.1
				c-0.3,0-0.5-0.1-0.5-0.2c0-0.2,0.2-0.2,0.5-0.2c0.2,0,0.5,0,0.7-0.1c0.5-0.1,0.7-0.4,0.8-1.3c0.1-1,0.1-2.7,0.1-5V104.9z"/>
			<path class="st0" d="M503.4,111.1c-0.1,0-0.2,0-0.2,0.2l-0.7,2c-0.2,0.6-0.4,1.2-0.4,1.5c0,0.5,0.2,0.7,0.7,0.7
				c0.3,0,0.6,0.1,0.8,0.1c0.4,0,0.4,0.1,0.4,0.2c0,0.2-0.2,0.2-0.5,0.2c-1.1,0-1.9-0.1-3.2-0.1c-0.3,0-1.8,0.1-3,0.1
				c-0.3,0-0.5-0.1-0.5-0.2c0-0.2,0.2-0.2,0.5-0.2c0.3,0,0.5,0,0.8-0.1c0.8-0.2,1.3-0.9,1.8-2.1l6.4-14.5c0.5-1,0.7-1.4,1-1.4
				c0.2,0,0.5,0.3,0.9,1.2c0.6,1.3,4.6,10.5,6.3,14.2c0.8,1.9,1.3,2.4,2.2,2.6c0.3,0.1,0.6,0.1,0.8,0.1c0.3,0,0.5,0.1,0.5,0.2
				c0,0.2-0.2,0.2-0.6,0.2c-2.3,0-5.1,0-6.6-0.1c-0.4,0-0.5-0.1-0.5-0.2s0.1-0.2,0.3-0.3c0.3,0,0.4-0.2,0.3-0.4l-1.6-3.8
				c0-0.1-0.1-0.1-0.2-0.1H503.4z M508.2,109.2c0.1,0,0.1-0.1,0.1-0.1l-2.1-5.1c-0.1-0.2-0.1-0.1-0.2,0l-2,5.1c0,0.1,0,0.1,0.1,0.1
				H508.2z"/>
			<path class="st0" d="M527.2,104.9c0-3.7,0-4.2-0.1-5c0-1-0.3-1.3-0.9-1.4c-0.4-0.1-0.7-0.1-1-0.1c-0.3,0-0.4-0.1-0.4-0.3
				s0.2-0.2,0.5-0.2c1,0,3.3,0.1,3.7,0.1c0.5,0,2.8-0.1,3.9-0.1c2.3,0,3.8,0.2,4.9,0.8c1.2,0.6,2.2,1.8,2.2,3.7c0,2-1.2,3.5-3.2,4.8
				c1.5,2.1,3.2,4.7,4.7,6.3c1.3,1.4,1.8,1.8,2.5,1.9c0.3,0,0.4,0,0.6,0.1c0.3,0,0.4,0.1,0.4,0.2c0,0.2-0.2,0.2-0.5,0.2h-2.2
				c-2.5,0-3.5-0.2-4.4-0.8c-0.8-0.5-1.5-1.5-2.5-3c-1.1-1.8-1.7-2.8-2.1-3.5c0-0.1-0.2-0.1-0.3-0.1h-1.6c-0.1,0-0.2,0-0.2,0.2v1.2
				c0,1.9,0,3,0.1,4c0,0.6,0.2,1.1,0.9,1.3c0.3,0.1,0.6,0.1,1.1,0.1c0.4,0,0.4,0.1,0.4,0.3s-0.2,0.2-0.5,0.2c-1.6,0-4.2-0.1-4.4-0.1
				c-0.3,0-2.6,0.1-3.4,0.1c-0.4,0-0.5-0.1-0.5-0.2c0-0.2,0.2-0.2,0.4-0.2c0.2,0,0.6,0,0.8-0.1c0.5-0.1,0.7-0.6,0.7-1.4
				c0.1-1,0.1-2.7,0.1-5V104.9z M531.3,106.5c0,0.2,0.1,0.3,0.2,0.4c0.5,0.2,1.2,0.3,1.8,0.3c0.6,0,1.1-0.1,1.5-0.4
				c0.5-0.4,0.9-1.4,0.9-3c0-3.4-2.2-4.3-3.4-4.3c-0.4,0-0.8,0-1,0.1c-0.1,0-0.1,0.1-0.1,0.3V106.5z"/>
			<path class="st0" d="M560.4,109.1c0,1.9,0,4.1,0.1,5.1c0,0.6,0.2,1.1,0.9,1.2c0.3,0,0.6,0.1,1,0.1c0.4,0,0.5,0.1,0.5,0.3
				c0,0.1-0.1,0.2-0.6,0.2c-1.6,0-4-0.1-4.3-0.1c-0.4,0-2.7,0.1-3.5,0.1c-0.4,0-0.6,0-0.6-0.2c0-0.2,0.2-0.2,0.5-0.2
				c0.2,0,0.5,0,0.8-0.1c0.5-0.1,0.7-0.6,0.8-1.3c0.1-1,0.1-2.7,0.1-5.1v-9.4c-0.9,0-2.4,0-3.6,0c-1.3,0.1-1.9,0.4-2.2,1.2
				c-0.1,0.3-0.2,0.4-0.2,0.6c0,0.2-0.1,0.4-0.3,0.4c-0.2,0-0.2-0.2-0.2-0.5c0.1-1,0.4-2.3,0.5-3.2c0-0.4,0.1-0.6,0.3-0.6
				c0.2,0,0.3,0.1,0.8,0.2c0.4,0.1,1.7,0.2,2.7,0.2h10.4c0.7,0,1.2,0,1.5-0.1c0.4-0.1,0.6-0.1,0.7-0.1c0.2,0,0.2,0.1,0.2,0.7
				c0,0.3-0.1,2.6-0.2,3.2c0,0.3-0.1,0.5-0.2,0.5c-0.2,0-0.2-0.1-0.3-0.4c0-0.3,0-0.4,0-0.5c-0.1-0.7-0.5-1.3-1.9-1.4
				c-0.8-0.1-2-0.1-3.9-0.1V109.1z"/>
			<path class="st0" d="M577.8,98.7c0-0.7,0.1-1.2,0.4-1.2c0.2,0,0.3,0.1,0.9,0.6c1,0.8,2.3,2,7.7,7.1c2.4,2.3,4.1,3.9,4.7,4.4
				l-0.1-9c0-1.3-0.2-2-1.1-2.1c-0.3-0.1-0.7-0.1-1.1-0.1c-0.3,0-0.4-0.1-0.4-0.2c0-0.2,0.2-0.2,0.5-0.2c1,0,2.5,0.1,3.5,0.1
				c0.5,0,1.7-0.1,2.7-0.1c0.4,0,0.5,0.1,0.5,0.2c0,0.1-0.1,0.3-0.4,0.3c-0.3,0-0.4,0-0.6,0.1c-0.8,0.1-1,0.5-1.1,2
				c-0.2,4.8-0.2,9.6-0.3,14.4c0,1.2-0.2,1.5-0.5,1.5c-0.4,0-1.1-0.6-2.7-1.9c-1.6-1.4-3.7-3.3-5.2-4.6c-1.3-1.2-3.7-3.5-5.5-5.2
				l0.2,8.2c0,1.7,0.1,2.4,0.8,2.6c0.4,0.1,0.8,0.1,1.3,0.2c0.4,0,0.5,0.1,0.5,0.2c0,0.2-0.2,0.2-0.6,0.2c-0.8,0-1.6,0-3.1-0.1
				c-0.6,0-2.3,0.1-3.3,0.1c-0.3,0-0.5,0-0.5-0.2c0-0.1,0.1-0.2,0.5-0.2c0.2,0,0.5,0,0.8-0.1c0.9-0.1,1.1-0.7,1.1-3
				C577.7,107.6,577.6,101.8,577.8,98.7z"/>
			<path class="st0" d="M607.6,104.9c0-3.9,0-4.4-0.1-5.2c0-0.7-0.3-1.1-0.9-1.2c-0.2,0-0.6,0-0.8-0.1c-0.3,0-0.4-0.1-0.4-0.3
				s0.1-0.2,0.5-0.2c1.4,0,2.5,0.1,3.6,0.1c0.5,0,6.4,0,6.8,0c0.5,0,1.1,0,1.3-0.1c0.2,0,0.3-0.1,0.4-0.1c0.1,0,0.1,0.1,0.1,0.2
				c0,0.1,0,0.4-0.1,1.1c-0.1,0.5-0.1,1.3-0.2,2.6c0,0.2-0.1,0.3-0.2,0.3c-0.1,0-0.2-0.1-0.2-0.3c0-0.3,0-0.5-0.1-0.8
				c-0.1-0.6-0.4-0.9-1.6-1c-0.8-0.1-2.9-0.1-3.6-0.1c-0.1,0-0.2,0.1-0.2,0.2v5.3c0,0.2,0,0.3,0.2,0.3c0.7,0,2.6,0,3.5,0
				c1.2,0,1.5-0.1,1.7-0.6c0.1-0.2,0.2-0.3,0.3-0.3c0.1,0,0.1,0.1,0.1,0.3c0,0.2-0.1,1.1-0.2,2c0,0.6,0,1.7,0,2
				c0,0.3-0.1,0.5-0.2,0.5c-0.2,0-0.2-0.2-0.3-0.4c0-0.2,0-0.4-0.1-0.6c-0.1-0.7-0.4-1.1-1.6-1.2c-0.7,0-2.6-0.1-3.4-0.1
				c-0.1,0-0.1,0.1-0.1,0.3v1.7c0,0.8,0,2.2,0,3.1c0,1.7,0.4,2.1,3,2.1c0.6,0,1.6,0,2.2-0.3c0.7-0.3,1-0.8,1.2-1.9
				c0-0.3,0.1-0.4,0.3-0.4c0.2,0,0.2,0.2,0.2,0.5c0,0.9-0.3,2.8-0.4,3.2c-0.2,0.6-0.3,0.6-1.2,0.6c-3.3,0-5.1-0.1-7.6-0.1
				c-1.1,0-2.1,0.1-3.5,0.1c-0.4,0-0.6-0.1-0.6-0.2c0-0.1,0.1-0.2,0.5-0.2c0.3,0,0.5,0,0.7-0.1c0.7-0.1,0.8-1,0.8-2.5
				c0-1,0.1-2.4,0.1-3.9V104.9z"/>
			<path class="st0" d="M630.5,104.9c0-3.7,0-4.2-0.1-5c0-1-0.3-1.3-0.9-1.4c-0.4-0.1-0.7-0.1-1-0.1c-0.3,0-0.4-0.1-0.4-0.3
				s0.2-0.2,0.5-0.2c1,0,3.3,0.1,3.7,0.1c0.5,0,2.8-0.1,3.9-0.1c2.3,0,3.8,0.2,4.9,0.8c1.2,0.6,2.2,1.8,2.2,3.7c0,2-1.1,3.5-3.2,4.8
				c1.5,2.1,3.2,4.7,4.7,6.3c1.3,1.4,1.8,1.8,2.5,1.9c0.3,0,0.4,0,0.6,0.1c0.3,0,0.4,0.1,0.4,0.2c0,0.2-0.2,0.2-0.5,0.2h-2.2
				c-2.5,0-3.5-0.2-4.4-0.8c-0.8-0.5-1.5-1.5-2.5-3c-1.1-1.8-1.7-2.8-2.1-3.5c0-0.1-0.2-0.1-0.3-0.1h-1.6c-0.1,0-0.2,0-0.2,0.2v1.2
				c0,1.9,0,3,0.1,4c0,0.6,0.2,1.1,0.9,1.3c0.3,0.1,0.6,0.1,1.1,0.1c0.4,0,0.4,0.1,0.4,0.3s-0.2,0.2-0.5,0.2c-1.6,0-4.2-0.1-4.4-0.1
				c-0.3,0-2.6,0.1-3.4,0.1c-0.4,0-0.5-0.1-0.5-0.2c0-0.2,0.2-0.2,0.4-0.2c0.2,0,0.6,0,0.8-0.1c0.5-0.1,0.7-0.6,0.7-1.4
				c0.1-1,0.1-2.7,0.1-5V104.9z M634.6,106.5c0,0.2,0.1,0.3,0.2,0.4c0.5,0.2,1.2,0.3,1.8,0.3c0.6,0,1.1-0.1,1.5-0.4
				c0.5-0.4,0.9-1.4,0.9-3c0-3.4-2.2-4.3-3.4-4.3c-0.4,0-0.8,0-1,0.1c-0.1,0-0.1,0.1-0.1,0.3V106.5z"/>
		</g>
		<g>
			<polygon class="st0" points="362.9,105 362.9,109 251.9,107 			"/>
			<polygon class="st0" points="660.9,105 660.9,109 771.9,107 			"/>
		</g>
	</g>
</g>
</svg>
